<svg width="35" height="35" viewBox="0 0 35 35" fill="none" xmlns="http://www.w3.org/2000/svg">
<g clip-path="url(#clip0_180_336)">
<path d="M14.7916 4H6.0416C4.9158 4 4 4.9158 4 6.0416V11.2916C4 12.4176 4.9158 13.3334 6.0416 13.3334H14.7916C15.9176 13.3334 16.8334 12.4176 16.8334 11.2916V6.0416C16.8334 4.9158 15.9176 4 14.7916 4Z" fill="#FDFCFC"/>
<path d="M14.7916 15.6666H6.0416C4.9158 15.6666 4 16.5824 4 17.7084V29.9584C4 31.0842 4.9158 32 6.0416 32H14.7916C15.9176 32 16.8334 31.0842 16.8334 29.9584V17.7084C16.8334 16.5824 15.9176 15.6666 14.7916 15.6666Z" fill="#FDFCFC"/>
<path d="M29.9584 22.6666H21.2084C20.0824 22.6666 19.1666 23.5824 19.1666 24.7084V29.9584C19.1666 31.0842 20.0824 32 21.2084 32H29.9584C31.0842 32 32 31.0842 32 29.9584V24.7084C32 23.5824 31.0842 22.6666 29.9584 22.6666Z" fill="#FDFCFC"/>
<path d="M29.9584 4H21.2084C20.0824 4 19.1666 4.9158 19.1666 6.0416V18.2916C19.1666 19.4176 20.0824 20.3334 21.2084 20.3334H29.9584C31.0842 20.3334 32 19.4176 32 18.2916V6.0416C32 4.9158 31.0842 4 29.9584 4V4Z" fill="#FDFCFC"/>
</g>
<defs>
<clipPath id="clip0_180_336">
<rect width="28" height="28" fill="white" transform="translate(4 4)"/>
</clipPath>
</defs>
</svg>
