<svg width="32" height="34" viewBox="0 0 32 34" fill="none" xmlns="http://www.w3.org/2000/svg">
<path fill-rule="evenodd" clip-rule="evenodd" d="M20.6188 1.23425L27.3812 5.12798C30.2393 6.77365 32 9.81496 32 13.1063V20.8937C32 24.185 30.2393 27.2263 27.3812 28.872L20.6188 32.7657C17.7607 34.4114 14.2393 34.4114 11.3812 32.7657L4.61881 28.872C1.76068 27.2263 0 24.185 0 20.8937V13.1063C0 9.81496 1.76068 6.77365 4.61881 5.12798L11.3812 1.23425C14.2393 -0.411418 17.7607 -0.411418 20.6188 1.23425Z" fill="#4D4E59" fill-opacity="0.5"/>
<path d="M20.4941 1.45091L27.2564 5.34464C30.0373 6.9458 31.75 9.90461 31.75 13.1063V20.8937C31.75 24.0954 30.0373 27.0542 27.2564 28.6554L20.4941 32.5491C17.7132 34.1503 14.2868 34.1503 11.5059 32.5491L4.74356 28.6554L4.61881 28.872L4.74356 28.6554C1.96272 27.0542 0.25 24.0954 0.25 20.8937V13.1063C0.25 9.90461 1.96272 6.9458 4.74356 5.34464L11.5059 1.45091C14.2868 -0.150302 17.7132 -0.150302 20.4941 1.45091Z" stroke="#FDFCFC" stroke-opacity="0.3" stroke-width="0.5"/>
</svg>
