<svg width="121" height="44" viewBox="0 0 121 44" fill="none" xmlns="http://www.w3.org/2000/svg">
<path d="M5.91278e-05 3.86877H4.83795V13.5128H5.91278e-05V3.86877Z" fill="#16E4DC"/>
<path d="M6.10352e-05 4.00705C6.10352e-05 1.79189 1.57574 0 3.52363 0H5.00006V8H3.52363C1.57574 8 6.10352e-05 6.20811 6.10352e-05 4.00705Z" fill="#186A67"/>
<path d="M114.56 14.0161L114.558 14.0148C111.07 10.8104 106.316 9 101.331 9H1.00008V40.2463C1.00008 41.6876 2.3011 43 4.1026 43H101.331C106.302 43 111.071 41.1893 114.56 37.9967C121.814 31.3597 121.814 20.6531 114.56 14.0161Z" fill="#13141D" stroke="#16E4DC" stroke-width="2"/>
<path d="M16.168 32V20.8H17.896V32H16.168ZM20.2305 32V20.8H23.4785L25.9265 30.848H26.1825L28.6305 20.8H31.8785V32H30.1985V22.016H29.9425L27.5105 32H24.5985L22.1665 22.016H21.9105V32H20.2305ZM34.2149 32V20.8H38.6629C39.3455 20.8 39.9535 20.9387 40.4869 21.216C41.0309 21.4827 41.4522 21.8667 41.7509 22.368C42.0602 22.8587 42.2149 23.4507 42.2149 24.144V24.352C42.2149 25.0453 42.0549 25.6427 41.7349 26.144C41.4255 26.6453 41.0042 27.0293 40.4709 27.296C39.9375 27.5627 39.3349 27.696 38.6629 27.696H35.9429V32H34.2149ZM35.9429 26.128H38.4869C39.0949 26.128 39.5802 25.968 39.9429 25.648C40.3055 25.328 40.4869 24.8907 40.4869 24.336V24.176C40.4869 23.6107 40.3055 23.168 39.9429 22.848C39.5802 22.528 39.0949 22.368 38.4869 22.368H35.9429V26.128ZM48.0475 32.224C47.1622 32.224 46.3995 32.064 45.7595 31.744C45.1302 31.424 44.6395 30.9653 44.2875 30.368C43.9462 29.76 43.7755 29.024 43.7755 28.16V20.8H45.5195V28.208C45.5195 28.9973 45.7382 29.6053 46.1755 30.032C46.6128 30.4587 47.2368 30.672 48.0475 30.672C48.8582 30.672 49.4822 30.4587 49.9195 30.032C50.3568 29.6053 50.5755 28.9973 50.5755 28.208V20.8H52.3035V28.16C52.3035 29.024 52.1328 29.76 51.7915 30.368C51.4502 30.9653 50.9595 31.424 50.3195 31.744C49.6795 32.064 48.9222 32.224 48.0475 32.224ZM54.5586 32V20.8H56.2866V30.432H61.6786V32H54.5586ZM67.0698 32.224C66.2271 32.224 65.4804 32.0747 64.8298 31.776C64.1791 31.4773 63.6671 31.04 63.2938 30.464C62.9311 29.8773 62.7498 29.168 62.7498 28.336V27.936H64.4618V28.336C64.4618 29.1253 64.6964 29.7173 65.1658 30.112C65.6458 30.5067 66.2804 30.704 67.0698 30.704C67.8698 30.704 68.4724 30.5387 68.8778 30.208C69.2831 29.8667 69.4858 29.4293 69.4858 28.896C69.4858 28.544 69.3898 28.256 69.1978 28.032C69.0058 27.808 68.7338 27.632 68.3818 27.504C68.0298 27.3653 67.6084 27.2373 67.1178 27.12L66.5258 26.976C65.8111 26.8053 65.1871 26.5973 64.6538 26.352C64.1311 26.096 63.7258 25.76 63.4378 25.344C63.1498 24.928 63.0058 24.3947 63.0058 23.744C63.0058 23.0827 63.1658 22.5173 63.4858 22.048C63.8164 21.5787 64.2698 21.216 64.8458 20.96C65.4218 20.704 66.0991 20.576 66.8778 20.576C67.6564 20.576 68.3498 20.7093 68.9578 20.976C69.5764 21.2427 70.0618 21.6373 70.4138 22.16C70.7658 22.6827 70.9418 23.3387 70.9418 24.128V24.704H69.2298V24.128C69.2298 23.648 69.1284 23.2587 68.9258 22.96C68.7338 22.6613 68.4618 22.4427 68.1098 22.304C67.7578 22.1653 67.3471 22.096 66.8778 22.096C66.1951 22.096 65.6618 22.24 65.2778 22.528C64.9044 22.8053 64.7178 23.1947 64.7178 23.696C64.7178 24.0373 64.7978 24.32 64.9578 24.544C65.1284 24.7573 65.3738 24.9333 65.6938 25.072C66.0138 25.2107 66.4138 25.3333 66.8938 25.44L67.4858 25.584C68.2111 25.744 68.8511 25.952 69.4058 26.208C69.9604 26.4533 70.3978 26.7893 70.7178 27.216C71.0378 27.6427 71.1978 28.192 71.1978 28.864C71.1978 29.536 71.0271 30.1227 70.6858 30.624C70.3551 31.1253 69.8804 31.52 69.2618 31.808C68.6431 32.0853 67.9124 32.224 67.0698 32.224ZM73.0118 32V20.8H80.0677V22.368H74.7398V25.584H79.6198V27.152H74.7398V30.432H80.1478V32H73.0118Z" fill="#FDFCFC"/>
<path fill-rule="evenodd" clip-rule="evenodd" d="M98.5311 15.7986L102.969 18.3181C104.845 19.383 106 21.3509 106 23.4806V28.5195C106 30.6491 104.845 32.617 102.969 33.6819L98.5311 36.2014C96.6554 37.2662 94.3446 37.2662 92.4689 36.2014L88.0311 33.6819C86.1554 32.617 85 30.6491 85 28.5195V23.4806C85 21.3509 86.1554 19.383 88.0311 18.3181L92.4689 15.7986C94.3446 14.7338 96.6554 14.7338 98.5311 15.7986Z" fill="#4D4E59" fill-opacity="0.5"/>
<path d="M95.2157 29.4312C94.6497 29.4312 94.1914 29.9013 94.1914 30.4655C94.1914 31.0162 94.6362 31.4998 95.2157 31.4998C95.7953 31.4998 96.2536 31.0162 96.2536 30.4655C96.2536 29.9013 95.7819 29.4312 95.2157 29.4312Z" fill="#FDFCFC"/>
<path d="M95.3921 21.6001C93.5725 21.6001 92.7368 22.6747 92.7368 23.4C92.7368 23.9239 93.1816 24.1657 93.5455 24.1657C94.2734 24.1657 93.9768 23.1314 95.3517 23.1314C96.0256 23.1314 96.5648 23.4269 96.5648 24.0448C96.5648 24.7702 95.81 25.1866 95.3652 25.5627C94.9743 25.8985 94.4621 26.4492 94.4621 27.6044C94.4621 28.3029 94.6508 28.5044 95.2034 28.5044C95.8639 28.5044 95.9986 28.2089 95.9986 27.9537C95.9986 27.2552 96.0122 26.8522 96.7535 26.2746C97.1174 25.9926 98.2631 25.0791 98.2631 23.8165C98.2631 22.5538 97.1174 21.6001 95.3921 21.6001Z" fill="#FDFCFC"/>
</svg>
