<svg width="21" height="22" viewBox="0 0 21 22" fill="none" xmlns="http://www.w3.org/2000/svg">
<path fill-rule="evenodd" clip-rule="evenodd" d="M13.5311 0.798634L17.9689 3.31811C19.8446 4.38295 21 6.35086 21 8.48055V13.5195C21 15.6491 19.8446 17.617 17.9689 18.6819L13.5311 21.2014C11.6554 22.2662 9.34455 22.2662 7.46891 21.2014L3.03109 18.6819C1.15545 17.617 0 15.6491 0 13.5195V8.48055C0 6.35086 1.15545 4.38295 3.03109 3.31811L7.46891 0.798634C9.34455 -0.266211 11.6554 -0.266211 13.5311 0.798634Z" fill="#4D4E59" fill-opacity="0.5"/>
<path d="M10.2159 14.4312C9.6498 14.4312 9.1915 14.9013 9.1915 15.4655C9.1915 16.0162 9.6363 16.4998 10.2159 16.4998C10.7954 16.4998 11.2537 16.0162 11.2537 15.4655C11.2537 14.9013 10.782 14.4312 10.2159 14.4312Z" fill="#FDFCFC"/>
<path d="M10.3922 6.6001C8.57261 6.6001 7.73694 7.67467 7.73694 8.40003C7.73694 8.92392 8.18171 9.16569 8.54566 9.16569C9.27348 9.16569 8.97697 8.13139 10.3518 8.13139C11.0258 8.13139 11.5649 8.42692 11.5649 9.04481C11.5649 9.7702 10.8101 10.1866 10.3653 10.5627C9.97443 10.8985 9.46223 11.4492 9.46223 12.6044C9.46223 13.3029 9.65089 13.5044 10.2035 13.5044C10.864 13.5044 10.9988 13.2089 10.9988 12.9537C10.9988 12.2552 11.0123 11.8522 11.7536 11.2746C12.1175 10.9926 13.2633 10.0791 13.2633 8.81648C13.2633 7.55382 12.1175 6.6001 10.3922 6.6001Z" fill="#FDFCFC"/>
</svg>
